<svg width="669" height="184" viewBox="0 0 669 184" fill="none" xmlns="http://www.w3.org/2000/svg">
<path d="M256.523 67.1072V83.4372H282.858V98.6172H256.523V116.327H286.308V132.082H236.858V51.3522H286.308V67.1072H256.523ZM295.165 99.9972C295.165 93.3272 296.506 87.5005 299.19 82.5172C301.95 77.5338 305.745 73.7005 310.575 71.0172C315.481 68.3338 321.078 66.9922 327.365 66.9922C335.415 66.9922 342.123 69.1005 347.49 73.3172C352.933 77.5338 356.498 83.4755 358.185 91.1422H337.255C335.491 86.2355 332.08 83.7822 327.02 83.7822C323.416 83.7822 320.541 85.2005 318.395 88.0372C316.248 90.7972 315.175 94.7838 315.175 99.9972C315.175 105.211 316.248 109.236 318.395 112.072C320.541 114.832 323.416 116.212 327.02 116.212C332.08 116.212 335.491 113.759 337.255 108.852H358.185C356.498 116.366 352.933 122.269 347.49 126.562C342.046 130.856 335.338 133.002 327.365 133.002C321.078 133.002 315.481 131.661 310.575 128.977C305.745 126.294 301.95 122.461 299.19 117.477C296.506 112.494 295.165 106.667 295.165 99.9972ZM397.914 133.002C391.627 133.002 385.954 131.661 380.894 128.977C375.91 126.294 371.962 122.461 369.049 117.477C366.212 112.494 364.794 106.667 364.794 99.9972C364.794 93.4038 366.25 87.6155 369.164 82.6322C372.077 77.5722 376.064 73.7005 381.124 71.0172C386.184 68.3338 391.857 66.9922 398.144 66.9922C404.43 66.9922 410.104 68.3338 415.164 71.0172C420.224 73.7005 424.21 77.5722 427.124 82.6322C430.037 87.6155 431.494 93.4038 431.494 99.9972C431.494 106.591 429.999 112.417 427.009 117.477C424.095 122.461 420.07 126.294 414.934 128.977C409.874 131.661 404.2 133.002 397.914 133.002ZM397.914 115.982C401.67 115.982 404.852 114.602 407.459 111.842C410.142 109.082 411.484 105.134 411.484 99.9972C411.484 94.8605 410.18 90.9122 407.574 88.1522C405.044 85.3922 401.9 84.0122 398.144 84.0122C394.31 84.0122 391.129 85.3922 388.599 88.1522C386.069 90.8355 384.804 94.7838 384.804 99.9972C384.804 105.134 386.03 109.082 388.484 111.842C391.014 114.602 394.157 115.982 397.914 115.982ZM451.816 61.2422C448.366 61.2422 445.53 60.2455 443.306 58.2522C441.16 56.1822 440.086 53.6522 440.086 50.6622C440.086 47.5955 441.16 45.0655 443.306 43.0722C445.53 41.0022 448.366 39.9672 451.816 39.9672C455.19 39.9672 457.95 41.0022 460.096 43.0722C462.32 45.0655 463.431 47.5955 463.431 50.6622C463.431 53.6522 462.32 56.1822 460.096 58.2522C457.95 60.2455 455.19 61.2422 451.816 61.2422ZM461.591 67.9122V132.082H441.926V67.9122H461.591ZM501.947 133.002C496.351 133.002 491.367 132.044 486.997 130.127C482.627 128.211 479.177 125.604 476.647 122.307C474.117 118.934 472.699 115.177 472.392 111.037H491.827C492.057 113.261 493.092 115.062 494.932 116.442C496.772 117.822 499.034 118.512 501.717 118.512C504.171 118.512 506.049 118.052 507.352 117.132C508.732 116.136 509.422 114.871 509.422 113.337C509.422 111.497 508.464 110.156 506.547 109.312C504.631 108.392 501.526 107.396 497.232 106.322C492.632 105.249 488.799 104.137 485.732 102.987C482.666 101.76 480.021 99.8822 477.797 97.3522C475.574 94.7455 474.462 91.2572 474.462 86.8872C474.462 83.2072 475.459 79.8722 477.452 76.8822C479.522 73.8155 482.512 71.4005 486.422 69.6372C490.409 67.8738 495.124 66.9922 500.567 66.9922C508.617 66.9922 514.942 68.9855 519.542 72.9722C524.219 76.9588 526.902 82.2488 527.592 88.8422H509.422C509.116 86.6188 508.119 84.8555 506.432 83.5522C504.822 82.2488 502.676 81.5972 499.992 81.5972C497.692 81.5972 495.929 82.0572 494.702 82.9772C493.476 83.8205 492.862 85.0088 492.862 86.5422C492.862 88.3822 493.821 89.7622 495.737 90.6822C497.731 91.6022 500.797 92.5222 504.937 93.4422C509.691 94.6688 513.562 95.8955 516.552 97.1222C519.542 98.2722 522.149 100.189 524.372 102.872C526.672 105.479 527.861 109.006 527.937 113.452C527.937 117.209 526.864 120.582 524.717 123.572C522.647 126.486 519.619 128.786 515.632 130.472C511.722 132.159 507.161 133.002 501.947 133.002ZM600.458 98.9622C600.458 100.802 600.343 102.719 600.113 104.712H555.608C555.915 108.699 557.18 111.766 559.403 113.912C561.703 115.982 564.502 117.017 567.798 117.017C572.705 117.017 576.117 114.947 578.033 110.807H598.963C597.89 115.024 595.935 118.819 593.098 122.192C590.338 125.566 586.85 128.211 582.633 130.127C578.417 132.044 573.702 133.002 568.488 133.002C562.202 133.002 556.605 131.661 551.698 128.977C546.792 126.294 542.958 122.461 540.198 117.477C537.438 112.494 536.058 106.667 536.058 99.9972C536.058 93.3272 537.4 87.5005 540.083 82.5172C542.843 77.5338 546.677 73.7005 551.583 71.0172C556.49 68.3338 562.125 66.9922 568.488 66.9922C574.698 66.9922 580.218 68.2955 585.048 70.9022C589.878 73.5088 593.635 77.2272 596.318 82.0572C599.078 86.8872 600.458 92.5222 600.458 98.9622ZM580.333 93.7872C580.333 90.4138 579.183 87.7305 576.883 85.7372C574.583 83.7438 571.708 82.7472 568.258 82.7472C564.962 82.7472 562.163 83.7055 559.863 85.6222C557.64 87.5388 556.26 90.2605 555.723 93.7872H580.333ZM636.938 133.002C631.341 133.002 626.358 132.044 621.988 130.127C617.618 128.211 614.168 125.604 611.638 122.307C609.108 118.934 607.689 115.177 607.383 111.037H626.818C627.048 113.261 628.083 115.062 629.923 116.442C631.763 117.822 634.024 118.512 636.708 118.512C639.161 118.512 641.039 118.052 642.343 117.132C643.723 116.136 644.413 114.871 644.413 113.337C644.413 111.497 643.454 110.156 641.538 109.312C639.621 108.392 636.516 107.396 632.223 106.322C627.623 105.249 623.789 104.137 620.723 102.987C617.656 101.76 615.011 99.8822 612.788 97.3522C610.564 94.7455 609.453 91.2572 609.453 86.8872C609.453 83.2072 610.449 79.8722 612.443 76.8822C614.513 73.8155 617.503 71.4005 621.413 69.6372C625.399 67.8738 630.114 66.9922 635.558 66.9922C643.608 66.9922 649.933 68.9855 654.533 72.9722C659.209 76.9588 661.893 82.2488 662.583 88.8422H644.413C644.106 86.6188 643.109 84.8555 641.423 83.5522C639.813 82.2488 637.666 81.5972 634.983 81.5972C632.683 81.5972 630.919 82.0572 629.693 82.9772C628.466 83.8205 627.853 85.0088 627.853 86.5422C627.853 88.3822 628.811 89.7622 630.728 90.6822C632.721 91.6022 635.788 92.5222 639.928 93.4422C644.681 94.6688 648.553 95.8955 651.543 97.1222C654.533 98.2722 657.139 100.189 659.363 102.872C661.663 105.479 662.851 109.006 662.928 113.452C662.928 117.209 661.854 120.582 659.708 123.572C657.638 126.486 654.609 128.786 650.623 130.472C646.713 132.159 642.151 133.002 636.938 133.002Z" fill="white"/>
<path d="M0.127991 35.0822C0.127991 15.7522 15.798 0.0821686 35.128 0.0821686H151.128C170.458 0.0821686 186.128 15.7522 186.128 35.0822V148.082C186.128 167.412 170.458 183.082 151.128 183.082H35.128C15.798 183.082 0.127991 167.412 0.127991 148.082V35.0822Z" fill="white"/>
<path fill-rule="evenodd" clip-rule="evenodd" d="M95.128 183.082C96.128 164.582 99.428 145.798 109.628 129.298C101.728 128.798 94.228 128.198 87.728 123.998C80.928 119.698 76.828 113.798 76.428 105.398C80.428 114.198 87.528 119.198 96.528 121.398C106.728 123.798 116.928 123.298 126.828 119.298C139.428 114.098 150.028 106.098 158.728 95.4976C160.628 93.2976 161.928 90.3976 163.028 87.2976C143.628 98.4976 123.428 101.998 101.228 95.5976C103.828 95.1976 106.028 94.4976 107.928 94.7976C125.128 97.0976 141.528 94.1976 157.428 87.8976C165.028 84.8976 167.228 76.9976 161.928 70.5976C160.828 69.1976 159.528 67.7976 158.128 66.6976C146.428 58.0976 133.928 51.0976 119.828 47.0976C109.828 44.2976 100.028 46.2976 90.528 50.3976C75.228 56.9976 64.728 68.6976 55.928 82.3976C49.128 93.1976 42.528 104.098 35.028 114.398C25.228 128.198 13.328 140.198 0.127995 152.398C0.127995 149.398 0.127995 147.398 0.127995 145.298C0.661328 108.298 -0.338666 69.5822 0.128001 32.5822C0.228001 24.7822 3.428 18.8822 8.128 12.5822C14.428 3.98217 23.728 0.182163 34.128 0.0821625C74.428 -0.117837 114.628 0.0976443 154.928 0.197644C171.028 0.197644 185.728 12.8976 186.828 28.6976C187.828 43.3976 187.628 58.2976 187.628 73.0976C187.728 97.3976 187.628 121.598 187.728 145.898C187.728 158.198 184.028 168.698 173.728 176.198C167.428 180.798 160.228 182.998 152.428 182.998C134.028 182.898 115.528 183.282 97.128 183.082C96.728 183.082 96.128 183.082 95.128 183.082ZM51.928 42.8976C51.528 43.4976 51.128 44.0643 50.728 44.5976C55.828 51.0976 60.928 57.5976 66.128 64.2976C70.528 60.6976 74.428 57.2976 79.328 53.0976C69.628 49.4976 60.828 46.1976 51.928 42.8976ZM56.328 77.3976C59.528 72.9976 62.328 69.2976 65.328 65.1976C56.328 61.5976 47.928 57.7976 37.728 55.7976C42.628 64.9976 49.628 70.5976 56.328 77.3976ZM70.828 32.1976C70.528 33.0976 70.328 33.3976 70.428 33.5976C73.528 39.4976 76.728 45.4976 80.028 51.2976C80.328 51.7976 81.728 51.9976 82.328 51.7976C86.628 49.6976 90.828 47.5976 95.628 45.0976C87.328 40.0976 80.128 34.4976 70.828 32.1976ZM48.228 90.9976C50.928 86.3976 53.128 82.5976 55.428 78.5976C46.928 76.3976 39.128 74.2976 31.328 72.2976C30.9947 72.7643 30.6613 73.2643 30.328 73.7976C36.028 79.2976 41.828 84.8976 48.228 90.9976ZM39.528 104.698C42.328 100.298 44.728 96.5976 47.328 92.3976C39.628 90.5976 33.128 89.0976 26.528 87.5976C26.2613 88.0643 26.028 88.531 25.828 88.9976C30.228 93.9976 34.628 99.0976 39.528 104.698Z" fill="#84CC16"/>
<path d="M155.444 74.7151C153.844 76.3151 152.844 77.2151 151.844 78.2151C150.844 77.2151 149.344 76.2151 149.144 75.1151C148.944 74.4151 150.644 72.6151 151.644 72.5151C152.544 72.3151 153.744 73.6151 155.444 74.7151Z" fill="#84CC16"/>
<path d="M120.328 72.3976C117.528 72.3976 115.228 70.0976 115.228 67.2976C115.228 64.4976 117.528 62.2976 120.328 62.2976C122.128 62.2976 123.728 63.1976 124.628 64.6976C123.228 59.6976 118.728 55.7976 113.428 55.8976C107.128 55.8976 101.528 61.1976 101.528 67.1976C101.528 73.8976 106.328 78.5976 113.228 78.5976C118.228 79.5976 123.728 75.1976 124.828 69.4976C123.928 71.1976 122.328 72.3976 120.328 72.3976Z" fill="#84CC16"/>
</svg>
