<svg width="670" height="185" viewBox="0 0 670 185" fill="none" xmlns="http://www.w3.org/2000/svg">
<path d="M257.395 68.025V84.355H283.73V99.535H257.395V117.245H287.18V133H237.73V52.27H287.18V68.025H257.395ZM296.037 100.915C296.037 94.245 297.379 88.4183 300.062 83.435C302.822 78.4517 306.617 74.6183 311.447 71.935C316.354 69.2517 321.95 67.91 328.237 67.91C336.287 67.91 342.995 70.0183 348.362 74.235C353.805 78.4517 357.37 84.3933 359.057 92.06H338.127C336.364 87.1533 332.952 84.7 327.892 84.7C324.289 84.7 321.414 86.1183 319.267 88.955C317.12 91.715 316.047 95.7017 316.047 100.915C316.047 106.128 317.12 110.153 319.267 112.99C321.414 115.75 324.289 117.13 327.892 117.13C332.952 117.13 336.364 114.677 338.127 109.77H359.057C357.37 117.283 353.805 123.187 348.362 127.48C342.919 131.773 336.21 133.92 328.237 133.92C321.95 133.92 316.354 132.578 311.447 129.895C306.617 127.212 302.822 123.378 300.062 118.395C297.379 113.412 296.037 107.585 296.037 100.915ZM398.786 133.92C392.499 133.92 386.826 132.578 381.766 129.895C376.782 127.212 372.834 123.378 369.921 118.395C367.084 113.412 365.666 107.585 365.666 100.915C365.666 94.3217 367.122 88.5333 370.036 83.55C372.949 78.49 376.936 74.6183 381.996 71.935C387.056 69.2517 392.729 67.91 399.016 67.91C405.302 67.91 410.976 69.2517 416.036 71.935C421.096 74.6183 425.082 78.49 427.996 83.55C430.909 88.5333 432.366 94.3217 432.366 100.915C432.366 107.508 430.871 113.335 427.881 118.395C424.967 123.378 420.942 127.212 415.806 129.895C410.746 132.578 405.072 133.92 398.786 133.92ZM398.786 116.9C402.542 116.9 405.724 115.52 408.331 112.76C411.014 110 412.356 106.052 412.356 100.915C412.356 95.7783 411.052 91.83 408.446 89.07C405.916 86.31 402.772 84.93 399.016 84.93C395.182 84.93 392.001 86.31 389.471 89.07C386.941 91.7533 385.676 95.7017 385.676 100.915C385.676 106.052 386.902 110 389.356 112.76C391.886 115.52 395.029 116.9 398.786 116.9ZM452.688 62.16C449.238 62.16 446.402 61.1633 444.178 59.17C442.032 57.1 440.958 54.57 440.958 51.58C440.958 48.5133 442.032 45.9833 444.178 43.99C446.402 41.92 449.238 40.885 452.688 40.885C456.062 40.885 458.822 41.92 460.968 43.99C463.192 45.9833 464.303 48.5133 464.303 51.58C464.303 54.57 463.192 57.1 460.968 59.17C458.822 61.1633 456.062 62.16 452.688 62.16ZM462.463 68.83V133H442.798V68.83H462.463ZM502.819 133.92C497.223 133.92 492.239 132.962 487.869 131.045C483.499 129.128 480.049 126.522 477.519 123.225C474.989 119.852 473.571 116.095 473.264 111.955H492.699C492.929 114.178 493.964 115.98 495.804 117.36C497.644 118.74 499.906 119.43 502.589 119.43C505.043 119.43 506.921 118.97 508.224 118.05C509.604 117.053 510.294 115.788 510.294 114.255C510.294 112.415 509.336 111.073 507.419 110.23C505.503 109.31 502.398 108.313 498.104 107.24C493.504 106.167 489.671 105.055 486.604 103.905C483.538 102.678 480.893 100.8 478.669 98.27C476.446 95.6633 475.334 92.175 475.334 87.805C475.334 84.125 476.331 80.79 478.324 77.8C480.394 74.7333 483.384 72.3183 487.294 70.555C491.281 68.7917 495.996 67.91 501.439 67.91C509.489 67.91 515.814 69.9033 520.414 73.89C525.091 77.8767 527.774 83.1667 528.464 89.76H510.294C509.988 87.5367 508.991 85.7733 507.304 84.47C505.694 83.1667 503.548 82.515 500.864 82.515C498.564 82.515 496.801 82.975 495.574 83.895C494.348 84.7383 493.734 85.9267 493.734 87.46C493.734 89.3 494.693 90.68 496.609 91.6C498.603 92.52 501.669 93.44 505.809 94.36C510.563 95.5867 514.434 96.8133 517.424 98.04C520.414 99.19 523.021 101.107 525.244 103.79C527.544 106.397 528.733 109.923 528.809 114.37C528.809 118.127 527.736 121.5 525.589 124.49C523.519 127.403 520.491 129.703 516.504 131.39C512.594 133.077 508.033 133.92 502.819 133.92ZM601.33 99.88C601.33 101.72 601.215 103.637 600.985 105.63H556.48C556.787 109.617 558.052 112.683 560.275 114.83C562.575 116.9 565.374 117.935 568.67 117.935C573.577 117.935 576.989 115.865 578.905 111.725H599.835C598.762 115.942 596.807 119.737 593.97 123.11C591.21 126.483 587.722 129.128 583.505 131.045C579.289 132.962 574.574 133.92 569.36 133.92C563.074 133.92 557.477 132.578 552.57 129.895C547.664 127.212 543.83 123.378 541.07 118.395C538.31 113.412 536.93 107.585 536.93 100.915C536.93 94.245 538.272 88.4183 540.955 83.435C543.715 78.4517 547.549 74.6183 552.455 71.935C557.362 69.2517 562.997 67.91 569.36 67.91C575.57 67.91 581.09 69.2133 585.92 71.82C590.75 74.4267 594.507 78.145 597.19 82.975C599.95 87.805 601.33 93.44 601.33 99.88ZM581.205 94.705C581.205 91.3317 580.055 88.6483 577.755 86.655C575.455 84.6617 572.58 83.665 569.13 83.665C565.834 83.665 563.035 84.6233 560.735 86.54C558.512 88.4567 557.132 91.1783 556.595 94.705H581.205ZM637.81 133.92C632.213 133.92 627.23 132.962 622.86 131.045C618.49 129.128 615.04 126.522 612.51 123.225C609.98 119.852 608.561 116.095 608.255 111.955H627.69C627.92 114.178 628.955 115.98 630.795 117.36C632.635 118.74 634.896 119.43 637.58 119.43C640.033 119.43 641.911 118.97 643.215 118.05C644.595 117.053 645.285 115.788 645.285 114.255C645.285 112.415 644.326 111.073 642.41 110.23C640.493 109.31 637.388 108.313 633.095 107.24C628.495 106.167 624.661 105.055 621.595 103.905C618.528 102.678 615.883 100.8 613.66 98.27C611.436 95.6633 610.325 92.175 610.325 87.805C610.325 84.125 611.321 80.79 613.315 77.8C615.385 74.7333 618.375 72.3183 622.285 70.555C626.271 68.7917 630.986 67.91 636.43 67.91C644.48 67.91 650.805 69.9033 655.405 73.89C660.081 77.8767 662.765 83.1667 663.455 89.76H645.285C644.978 87.5367 643.981 85.7733 642.295 84.47C640.685 83.1667 638.538 82.515 635.855 82.515C633.555 82.515 631.791 82.975 630.565 83.895C629.338 84.7383 628.725 85.9267 628.725 87.46C628.725 89.3 629.683 90.68 631.6 91.6C633.593 92.52 636.66 93.44 640.8 94.36C645.553 95.5867 649.425 96.8133 652.415 98.04C655.405 99.19 658.011 101.107 660.235 103.79C662.535 106.397 663.723 109.923 663.8 114.37C663.8 118.127 662.726 121.5 660.58 124.49C658.51 127.403 655.481 129.703 651.495 131.39C647.585 133.077 643.023 133.92 637.81 133.92Z" fill="black"/>
<path d="M1 36C1 16.67 16.67 1 36 1H152C171.33 1 187 16.67 187 36V149C187 168.33 171.33 184 152 184H36C16.67 184 1 168.33 1 149V36Z" fill="white"/>
<path fill-rule="evenodd" clip-rule="evenodd" d="M96 184C97 165.5 100.3 146.715 110.5 130.215C102.6 129.715 95.1 129.115 88.6 124.915C81.8 120.615 77.7 114.715 77.3 106.315C81.3 115.115 88.4 120.115 97.4 122.315C107.6 124.715 117.8 124.215 127.7 120.215C140.3 115.015 150.9 107.015 159.6 96.4155C161.5 94.2155 162.8 91.3155 163.9 88.2155C144.5 99.4155 124.3 102.915 102.1 96.5155C104.7 96.1155 106.9 95.4155 108.8 95.7155C126 98.0155 142.4 95.1154 158.3 88.8154C165.9 85.8154 168.1 77.9155 162.8 71.5155C161.7 70.1155 160.4 68.7155 159 67.6155C147.3 59.0155 134.8 52.0155 120.7 48.0155C110.7 45.2155 100.9 47.2154 91.4 51.3154C76.1 57.9154 65.6 69.6154 56.8 83.3154C50 94.1154 43.4 105.015 35.9 115.315C26.1 129.115 14.2 141.115 1 153.315C1 150.315 1 148.315 1 146.215C1.53334 109.215 0.533343 70.5 1.00001 33.5C1.10001 25.7 4.30001 19.8 9.00001 13.5C15.3 4.90002 24.6 1.10001 35 1.00001C75.3 0.800009 115.5 1.01549 155.8 1.11549C171.9 1.11549 186.6 13.8155 187.7 29.6155C188.7 44.3155 188.5 59.2155 188.5 74.0155C188.6 98.3155 188.5 122.515 188.6 146.815C188.6 159.115 184.9 169.615 174.6 177.115C168.3 181.715 161.1 183.915 153.3 183.915C134.9 183.815 116.4 184.2 98 184C97.6 184 97 184 96 184ZM52.8 43.8154C52.4 44.4154 52 44.9821 51.6 45.5155C56.7 52.0155 61.8 58.5155 67 65.2155C71.4 61.6155 75.3 58.2155 80.2 54.0155C70.5 50.4155 61.7 47.1154 52.8 43.8154ZM57.2 78.3154C60.4 73.9154 63.2 70.2155 66.2 66.1155C57.2 62.5155 48.8 58.7155 38.6 56.7155C43.5 65.9155 50.5 71.5154 57.2 78.3154ZM71.7 33.1155C71.4 34.0155 71.2 34.3155 71.3 34.5155C74.4 40.4155 77.6 46.4155 80.9 52.2155C81.2 52.7155 82.6 52.9155 83.2 52.7155C87.5 50.6155 91.7 48.5155 96.5 46.0155C88.2 41.0155 81 35.4155 71.7 33.1155ZM49.1 91.9155C51.8 87.3155 54 83.5155 56.3 79.5155C47.8 77.3155 40 75.2155 32.2 73.2155C31.8667 73.6821 31.5333 74.1821 31.2 74.7155C36.9 80.2155 42.7 85.8155 49.1 91.9155ZM40.4 105.615C43.2 101.215 45.6 97.5154 48.2 93.3154C40.5 91.5154 34 90.0155 27.4 88.5155C27.1333 88.9821 26.9 89.4488 26.7 89.9155C31.1 94.9155 35.5 100.015 40.4 105.615Z" fill="#84CC16"/>
<path d="M156.316 75.6329C154.716 77.2329 153.716 78.1329 152.716 79.1329C151.716 78.1329 150.216 77.1329 150.016 76.0329C149.816 75.3329 151.516 73.5329 152.516 73.4329C153.416 73.2329 154.616 74.5329 156.316 75.6329Z" fill="#84CC16"/>
<path d="M121.2 73.3154C118.4 73.3154 116.1 71.0155 116.1 68.2155C116.1 65.4155 118.4 63.2155 121.2 63.2155C123 63.2155 124.6 64.1155 125.5 65.6155C124.1 60.6155 119.6 56.7154 114.3 56.8154C108 56.8154 102.4 62.1155 102.4 68.1155C102.4 74.8155 107.2 79.5155 114.1 79.5155C119.1 80.5155 124.6 76.1155 125.7 70.4155C124.8 72.1155 123.2 73.3154 121.2 73.3154Z" fill="#84CC16"/>
</svg>
